<mxfile host="app.diagrams.net" modified="2024-06-26T10:30:47.976Z" agent="Mozilla/5.0 (Macintosh; Intel Mac OS X 10_15_7) AppleWebKit/537.36 (KHTML, like Gecko) Chrome/124.0.0.0 Safari/537.36" etag="W60KBDJxX_lO8G1WOogV" version="24.6.2" type="device">
  <diagram name="Page-1" id="T226tTuQOt1z9_ao44hb">
    <mxGraphModel dx="2542" dy="1367" grid="1" gridSize="10" guides="1" tooltips="1" connect="1" arrows="1" fold="1" page="1" pageScale="1" pageWidth="1600" pageHeight="1200" math="0" shadow="0">
      <root>
        <mxCell id="0" />
        <mxCell id="1" parent="0" />
        <mxCell id="pp-yPWMOadtS_Jy4oX6E-1" value="START" style="rounded=1;whiteSpace=wrap;html=1;" vertex="1" parent="1">
          <mxGeometry x="480" y="30" width="120" height="40" as="geometry" />
        </mxCell>
        <mxCell id="pp-yPWMOadtS_Jy4oX6E-2" value="" style="endArrow=classic;html=1;rounded=0;exitX=0.5;exitY=1;exitDx=0;exitDy=0;" edge="1" parent="1" source="pp-yPWMOadtS_Jy4oX6E-1">
          <mxGeometry width="50" height="50" relative="1" as="geometry">
            <mxPoint x="520" y="160" as="sourcePoint" />
            <mxPoint x="540" y="170" as="targetPoint" />
          </mxGeometry>
        </mxCell>
        <mxCell id="pp-yPWMOadtS_Jy4oX6E-4" value="" style="endArrow=classic;html=1;rounded=0;exitX=0.5;exitY=1;exitDx=0;exitDy=0;" edge="1" parent="1">
          <mxGeometry width="50" height="50" relative="1" as="geometry">
            <mxPoint x="539.5" y="230" as="sourcePoint" />
            <mxPoint x="540" y="320" as="targetPoint" />
          </mxGeometry>
        </mxCell>
        <mxCell id="pp-yPWMOadtS_Jy4oX6E-8" value="Display quiz topics" style="shape=process;whiteSpace=wrap;html=1;backgroundOutline=1;" vertex="1" parent="1">
          <mxGeometry x="480" y="170" width="120" height="60" as="geometry" />
        </mxCell>
        <mxCell id="pp-yPWMOadtS_Jy4oX6E-9" value="" style="endArrow=classic;html=1;rounded=0;" edge="1" parent="1">
          <mxGeometry width="50" height="50" relative="1" as="geometry">
            <mxPoint x="539.57" y="380" as="sourcePoint" />
            <mxPoint x="539.57" y="450" as="targetPoint" />
          </mxGeometry>
        </mxCell>
        <mxCell id="pp-yPWMOadtS_Jy4oX6E-10" value="Load questions for selected topic" style="shape=process;whiteSpace=wrap;html=1;backgroundOutline=1;" vertex="1" parent="1">
          <mxGeometry x="480" y="450" width="120" height="60" as="geometry" />
        </mxCell>
        <mxCell id="pp-yPWMOadtS_Jy4oX6E-11" value="Selected a quiz&lt;div&gt;&amp;nbsp;topic&lt;/div&gt;" style="shape=parallelogram;perimeter=parallelogramPerimeter;whiteSpace=wrap;html=1;fixedSize=1;" vertex="1" parent="1">
          <mxGeometry x="480" y="320" width="120" height="60" as="geometry" />
        </mxCell>
        <mxCell id="pp-yPWMOadtS_Jy4oX6E-12" value="" style="endArrow=classic;html=1;rounded=0;exitX=0.5;exitY=1;exitDx=0;exitDy=0;" edge="1" parent="1" source="pp-yPWMOadtS_Jy4oX6E-10">
          <mxGeometry width="50" height="50" relative="1" as="geometry">
            <mxPoint x="500" y="620" as="sourcePoint" />
            <mxPoint x="540" y="590" as="targetPoint" />
          </mxGeometry>
        </mxCell>
        <mxCell id="pp-yPWMOadtS_Jy4oX6E-13" value="Display question and answer options" style="shape=process;whiteSpace=wrap;html=1;backgroundOutline=1;" vertex="1" parent="1">
          <mxGeometry x="480" y="590" width="120" height="60" as="geometry" />
        </mxCell>
        <mxCell id="pp-yPWMOadtS_Jy4oX6E-14" value="" style="endArrow=classic;html=1;rounded=0;exitX=0.5;exitY=1;exitDx=0;exitDy=0;" edge="1" parent="1" source="pp-yPWMOadtS_Jy4oX6E-13">
          <mxGeometry width="50" height="50" relative="1" as="geometry">
            <mxPoint x="520" y="790" as="sourcePoint" />
            <mxPoint x="540" y="730" as="targetPoint" />
          </mxGeometry>
        </mxCell>
        <mxCell id="pp-yPWMOadtS_Jy4oX6E-15" value="Question answered" style="shape=process;whiteSpace=wrap;html=1;backgroundOutline=1;" vertex="1" parent="1">
          <mxGeometry x="480" y="730" width="120" height="60" as="geometry" />
        </mxCell>
        <mxCell id="pp-yPWMOadtS_Jy4oX6E-16" value="" style="endArrow=classic;html=1;rounded=0;exitX=0.5;exitY=1;exitDx=0;exitDy=0;" edge="1" parent="1" source="pp-yPWMOadtS_Jy4oX6E-15" target="pp-yPWMOadtS_Jy4oX6E-17">
          <mxGeometry width="50" height="50" relative="1" as="geometry">
            <mxPoint x="515" y="880" as="sourcePoint" />
            <mxPoint x="540" y="850" as="targetPoint" />
          </mxGeometry>
        </mxCell>
        <mxCell id="pp-yPWMOadtS_Jy4oX6E-17" value="Is selected option correct" style="rhombus;whiteSpace=wrap;html=1;" vertex="1" parent="1">
          <mxGeometry x="480" y="850" width="120" height="120" as="geometry" />
        </mxCell>
        <mxCell id="pp-yPWMOadtS_Jy4oX6E-18" value="" style="endArrow=classic;html=1;rounded=0;exitX=0.5;exitY=1;exitDx=0;exitDy=0;" edge="1" parent="1" source="pp-yPWMOadtS_Jy4oX6E-17">
          <mxGeometry width="50" height="50" relative="1" as="geometry">
            <mxPoint x="515" y="1050" as="sourcePoint" />
            <mxPoint x="540" y="1090" as="targetPoint" />
          </mxGeometry>
        </mxCell>
        <mxCell id="pp-yPWMOadtS_Jy4oX6E-21" value="&lt;font style=&quot;font-size: 18px;&quot;&gt;True&lt;/font&gt;" style="edgeLabel;html=1;align=center;verticalAlign=middle;resizable=0;points=[];" vertex="1" connectable="0" parent="pp-yPWMOadtS_Jy4oX6E-18">
          <mxGeometry x="-0.211" y="1" relative="1" as="geometry">
            <mxPoint as="offset" />
          </mxGeometry>
        </mxCell>
        <mxCell id="pp-yPWMOadtS_Jy4oX6E-19" value="" style="endArrow=classic;html=1;rounded=0;" edge="1" parent="1">
          <mxGeometry width="50" height="50" relative="1" as="geometry">
            <mxPoint x="600" y="910" as="sourcePoint" />
            <mxPoint x="730" y="910" as="targetPoint" />
          </mxGeometry>
        </mxCell>
        <mxCell id="pp-yPWMOadtS_Jy4oX6E-20" value="&lt;font style=&quot;font-size: 18px;&quot;&gt;False&lt;/font&gt;" style="edgeLabel;html=1;align=center;verticalAlign=middle;resizable=0;points=[];" vertex="1" connectable="0" parent="pp-yPWMOadtS_Jy4oX6E-19">
          <mxGeometry x="-0.0138" y="-1" relative="1" as="geometry">
            <mxPoint as="offset" />
          </mxGeometry>
        </mxCell>
        <mxCell id="pp-yPWMOadtS_Jy4oX6E-23" value="Score remains the same" style="rounded=0;whiteSpace=wrap;html=1;" vertex="1" parent="1">
          <mxGeometry x="730" y="880" width="120" height="60" as="geometry" />
        </mxCell>
        <mxCell id="pp-yPWMOadtS_Jy4oX6E-24" value="Score increases by +1" style="rounded=0;whiteSpace=wrap;html=1;" vertex="1" parent="1">
          <mxGeometry x="480" y="1090" width="120" height="60" as="geometry" />
        </mxCell>
        <mxCell id="pp-yPWMOadtS_Jy4oX6E-25" value="" style="endArrow=classic;html=1;rounded=0;exitX=0.5;exitY=1;exitDx=0;exitDy=0;" edge="1" parent="1" source="pp-yPWMOadtS_Jy4oX6E-24">
          <mxGeometry width="50" height="50" relative="1" as="geometry">
            <mxPoint x="515" y="1250" as="sourcePoint" />
            <mxPoint x="540" y="1240" as="targetPoint" />
          </mxGeometry>
        </mxCell>
        <mxCell id="pp-yPWMOadtS_Jy4oX6E-27" value="" style="endArrow=classic;html=1;rounded=0;" edge="1" parent="1">
          <mxGeometry width="50" height="50" relative="1" as="geometry">
            <mxPoint x="790" y="1200" as="sourcePoint" />
            <mxPoint x="540" y="1200" as="targetPoint" />
          </mxGeometry>
        </mxCell>
        <mxCell id="pp-yPWMOadtS_Jy4oX6E-28" value="" style="endArrow=none;html=1;rounded=0;entryX=0.5;entryY=1;entryDx=0;entryDy=0;" edge="1" parent="1" target="pp-yPWMOadtS_Jy4oX6E-23">
          <mxGeometry width="50" height="50" relative="1" as="geometry">
            <mxPoint x="790" y="1200" as="sourcePoint" />
            <mxPoint x="840" y="1150" as="targetPoint" />
          </mxGeometry>
        </mxCell>
        <mxCell id="pp-yPWMOadtS_Jy4oX6E-29" value="Are there any questions remaining" style="rhombus;whiteSpace=wrap;html=1;" vertex="1" parent="1">
          <mxGeometry x="457.5" y="1240" width="165" height="160" as="geometry" />
        </mxCell>
        <mxCell id="pp-yPWMOadtS_Jy4oX6E-32" value="" style="endArrow=classic;html=1;rounded=0;" edge="1" parent="1" target="pp-yPWMOadtS_Jy4oX6E-13">
          <mxGeometry width="50" height="50" relative="1" as="geometry">
            <mxPoint x="300" y="620" as="sourcePoint" />
            <mxPoint x="410" y="600" as="targetPoint" />
          </mxGeometry>
        </mxCell>
        <mxCell id="pp-yPWMOadtS_Jy4oX6E-33" value="" style="endArrow=none;html=1;rounded=0;" edge="1" parent="1">
          <mxGeometry width="50" height="50" relative="1" as="geometry">
            <mxPoint x="300" y="1320" as="sourcePoint" />
            <mxPoint x="300" y="620" as="targetPoint" />
          </mxGeometry>
        </mxCell>
        <mxCell id="pp-yPWMOadtS_Jy4oX6E-35" value="&lt;font style=&quot;font-size: 18px;&quot;&gt;True&lt;/font&gt;" style="edgeLabel;html=1;align=center;verticalAlign=middle;resizable=0;points=[];" vertex="1" connectable="0" parent="pp-yPWMOadtS_Jy4oX6E-33">
          <mxGeometry x="0.1039" y="-1" relative="1" as="geometry">
            <mxPoint as="offset" />
          </mxGeometry>
        </mxCell>
        <mxCell id="pp-yPWMOadtS_Jy4oX6E-34" value="" style="endArrow=none;html=1;rounded=0;entryX=0;entryY=0.5;entryDx=0;entryDy=0;" edge="1" parent="1" target="pp-yPWMOadtS_Jy4oX6E-29">
          <mxGeometry width="50" height="50" relative="1" as="geometry">
            <mxPoint x="300" y="1320" as="sourcePoint" />
            <mxPoint x="350" y="1270" as="targetPoint" />
          </mxGeometry>
        </mxCell>
        <mxCell id="pp-yPWMOadtS_Jy4oX6E-36" value="" style="endArrow=classic;html=1;rounded=0;exitX=0.5;exitY=1;exitDx=0;exitDy=0;" edge="1" parent="1" source="pp-yPWMOadtS_Jy4oX6E-29">
          <mxGeometry width="50" height="50" relative="1" as="geometry">
            <mxPoint x="550" y="1490" as="sourcePoint" />
            <mxPoint x="540" y="1540" as="targetPoint" />
          </mxGeometry>
        </mxCell>
        <mxCell id="pp-yPWMOadtS_Jy4oX6E-37" value="&lt;font style=&quot;font-size: 18px;&quot;&gt;False&lt;/font&gt;" style="edgeLabel;html=1;align=center;verticalAlign=middle;resizable=0;points=[];" vertex="1" connectable="0" parent="pp-yPWMOadtS_Jy4oX6E-36">
          <mxGeometry x="-0.0667" y="2" relative="1" as="geometry">
            <mxPoint as="offset" />
          </mxGeometry>
        </mxCell>
        <mxCell id="pp-yPWMOadtS_Jy4oX6E-38" value="Display &quot;Quiz Completed!&quot; &amp;amp; user&#39;s score" style="shape=process;whiteSpace=wrap;html=1;backgroundOutline=1;" vertex="1" parent="1">
          <mxGeometry x="480" y="1540" width="120" height="60" as="geometry" />
        </mxCell>
        <mxCell id="pp-yPWMOadtS_Jy4oX6E-39" value="Retry or select new&lt;div&gt;&amp;nbsp;quiz topic?&lt;/div&gt;" style="rhombus;whiteSpace=wrap;html=1;" vertex="1" parent="1">
          <mxGeometry x="470" y="1720" width="140" height="140" as="geometry" />
        </mxCell>
        <mxCell id="pp-yPWMOadtS_Jy4oX6E-40" value="" style="endArrow=classic;html=1;rounded=0;exitX=0.5;exitY=1;exitDx=0;exitDy=0;entryX=0.5;entryY=0;entryDx=0;entryDy=0;" edge="1" parent="1" source="pp-yPWMOadtS_Jy4oX6E-38" target="pp-yPWMOadtS_Jy4oX6E-39">
          <mxGeometry width="50" height="50" relative="1" as="geometry">
            <mxPoint x="530" y="1690" as="sourcePoint" />
            <mxPoint x="580" y="1640" as="targetPoint" />
          </mxGeometry>
        </mxCell>
        <mxCell id="pp-yPWMOadtS_Jy4oX6E-41" value="" style="endArrow=classic;html=1;rounded=0;exitX=0.5;exitY=1;exitDx=0;exitDy=0;" edge="1" parent="1" source="pp-yPWMOadtS_Jy4oX6E-39">
          <mxGeometry width="50" height="50" relative="1" as="geometry">
            <mxPoint x="515" y="1970" as="sourcePoint" />
            <mxPoint x="540" y="2000" as="targetPoint" />
          </mxGeometry>
        </mxCell>
        <mxCell id="pp-yPWMOadtS_Jy4oX6E-43" value="&lt;font style=&quot;font-size: 18px;&quot;&gt;False&lt;/font&gt;" style="edgeLabel;html=1;align=center;verticalAlign=middle;resizable=0;points=[];" vertex="1" connectable="0" parent="pp-yPWMOadtS_Jy4oX6E-41">
          <mxGeometry x="-0.0857" y="-1" relative="1" as="geometry">
            <mxPoint as="offset" />
          </mxGeometry>
        </mxCell>
        <mxCell id="pp-yPWMOadtS_Jy4oX6E-42" value="END" style="rounded=1;whiteSpace=wrap;html=1;" vertex="1" parent="1">
          <mxGeometry x="480" y="2000" width="120" height="40" as="geometry" />
        </mxCell>
        <mxCell id="pp-yPWMOadtS_Jy4oX6E-46" value="" style="endArrow=none;html=1;rounded=0;" edge="1" parent="1">
          <mxGeometry width="50" height="50" relative="1" as="geometry">
            <mxPoint x="190" y="1790" as="sourcePoint" />
            <mxPoint x="190" y="200" as="targetPoint" />
          </mxGeometry>
        </mxCell>
        <mxCell id="pp-yPWMOadtS_Jy4oX6E-49" value="&lt;font style=&quot;font-size: 18px;&quot;&gt;True&lt;/font&gt;" style="edgeLabel;html=1;align=center;verticalAlign=middle;resizable=0;points=[];" vertex="1" connectable="0" parent="pp-yPWMOadtS_Jy4oX6E-46">
          <mxGeometry x="0.0403" y="2" relative="1" as="geometry">
            <mxPoint y="-1" as="offset" />
          </mxGeometry>
        </mxCell>
        <mxCell id="pp-yPWMOadtS_Jy4oX6E-47" value="" style="endArrow=classic;html=1;rounded=0;entryX=0;entryY=0.5;entryDx=0;entryDy=0;" edge="1" parent="1" target="pp-yPWMOadtS_Jy4oX6E-8">
          <mxGeometry width="50" height="50" relative="1" as="geometry">
            <mxPoint x="190" y="200" as="sourcePoint" />
            <mxPoint x="240" y="140" as="targetPoint" />
          </mxGeometry>
        </mxCell>
        <mxCell id="pp-yPWMOadtS_Jy4oX6E-48" value="" style="endArrow=none;html=1;rounded=0;entryX=0;entryY=0.5;entryDx=0;entryDy=0;" edge="1" parent="1" target="pp-yPWMOadtS_Jy4oX6E-39">
          <mxGeometry width="50" height="50" relative="1" as="geometry">
            <mxPoint x="190" y="1790" as="sourcePoint" />
            <mxPoint x="240" y="1740" as="targetPoint" />
          </mxGeometry>
        </mxCell>
      </root>
    </mxGraphModel>
  </diagram>
</mxfile>
